<?xml version="1.0" encoding="UTF-8"?>
<svg width="44px" height="35px" viewBox="0 0 44 35" version="1.1" xmlns="http://www.w3.org/2000/svg" xmlns:xlink="http://www.w3.org/1999/xlink">
    <!-- Generator: Sketch 49.3 (51167) - http://www.bohemiancoding.com/sketch -->
    <title>State/complete-file</title>
    <desc>Created with Sketch.</desc>
    <defs></defs>
    <g id="Page-1" stroke="none" stroke-width="1" fill="none" fill-rule="evenodd">
        <g id="Main---no-guardian" transform="translate(-479.000000, -263.000000)">
            <g id="Content" transform="translate(343.000000, 244.000000)">
                <g id="Drop-folder-here">
                    <g id="Icon/folder" transform="translate(124.000000, 0.000000)">
                        <rect id="bounds" x="0" y="2.83333333" width="68" height="68"></rect>
                        <g id="baseline-folder-24px" stroke-width="1" fill-rule="evenodd" transform="translate(8.500000, 11.333333)">
                            <path d="M21.25,8.5 L8.5,8.5 C6.1625,8.5 4.27125,10.4125 4.27125,12.75 L4.25,38.25 C4.25,40.5875 6.1625,42.5 8.5,42.5 L42.5,42.5 C44.8375,42.5 46.75,40.5875 46.75,38.25 L46.75,17 C46.75,14.6625 44.8375,12.75 42.5,12.75 L25.5,12.75 L21.25,8.5 Z" id="Shape" fill="#9B9B9B" fill-rule="nonzero"></path>
                            <polygon id="Shape" points="0 0 51 0 51 51 0 51"></polygon>
                        </g>
                    </g>
                </g>
            </g>
        </g>
    </g>
</svg>