<?xml version="1.0" encoding="UTF-8"?>
<svg width="24px" height="24px" viewBox="0 0 24 24" version="1.1" xmlns="http://www.w3.org/2000/svg" xmlns:xlink="http://www.w3.org/1999/xlink">
    <!-- Generator: Sketch 49.3 (51167) - http://www.bohemiancoding.com/sketch -->
    <title>Icon/complete-file@1.5x</title>
    <desc>Created with Sketch.</desc>
    <defs></defs>
    <g id="Icon/complete-file" stroke="none" stroke-width="1" fill="none" fill-rule="evenodd">
        <rect id="bounds" x="0" y="1" width="24" height="24"></rect>
        <g id="baseline-insert_drive_file-24px" transform="translate(3.000000, 4.000000)">
            <path d="M4.5,1.5 C3.675,1.5 3.0075,2.175 3.0075,3 L3,15 C3,15.825 3.6675,16.5 4.4925,16.5 L13.5,16.5 C14.325,16.5 15,15.825 15,15 L15,6 L10.5,1.5 L4.5,1.5 Z M9.75,6.75 L9.75,2.625 L13.875,6.75 L9.75,6.75 Z" id="Shape" fill="#9B9B9B" fill-rule="nonzero"></path>
            <polygon id="Shape" points="0 0 18 0 18 18 0 18"></polygon>
        </g>
        <g id="Group" transform="translate(9.000000, 13.000000)" fill="#FDFDFD">
            <polygon id="Path" points="2.08126858 5 0 2.8125 0.838453915 1.93125 2.08126858 3.23125 5.16154609 0 6 0.88125"></polygon>
        </g>
    </g>
</svg>