<?xml version="1.0" encoding="UTF-8"?>
<svg width="44px" height="37px" viewBox="0 0 44 37" version="1.1" xmlns="http://www.w3.org/2000/svg" xmlns:xlink="http://www.w3.org/1999/xlink">
    <!-- Generator: Sketch 49.3 (51167) - http://www.bohemiancoding.com/sketch -->
    <title>ic-folder-empty</title>
    <desc>Created with Sketch.</desc>
    <defs></defs>
    <g id="Page-1" stroke="none" stroke-width="1" fill="none" fill-rule="evenodd">
        <g id="ic-folder-empty" transform="translate(-12.000000, -18.000000)">
            <rect id="bounds" x="0" y="0.95833333" width="68" height="71"></rect>
            <g id="outline-folder_open-24px" transform="translate(8.500000, 9.833333)">
                <polygon id="Shape" points="0 0 51 0 51 53.25 0 53.25"></polygon>
                <path d="M42.5,13.3125 L25.5,13.3125 L21.25,8.875 L8.5,8.875 C6.1625,8.875 4.27125,10.871875 4.27125,13.3125 L4.25,39.9375 C4.25,42.378125 6.1625,44.375 8.5,44.375 L42.5,44.375 C44.8375,44.375 46.75,42.378125 46.75,39.9375 L46.75,17.75 C46.75,15.309375 44.8375,13.3125 42.5,13.3125 Z M42.5,39.9375 L8.5,39.9375 L8.5,17.75 L42.5,17.75 L42.5,39.9375 Z" id="Shape" fill="#FFFFFF" fill-rule="nonzero"></path>
            </g>
        </g>
    </g>
</svg>