<?xml version="1.0" encoding="UTF-8"?>
<svg width="16px" height="20px" viewBox="0 0 16 20" version="1.1" xmlns="http://www.w3.org/2000/svg" xmlns:xlink="http://www.w3.org/1999/xlink">
    <!-- Generator: Sketch 49.3 (51167) - http://www.bohemiancoding.com/sketch -->
    <title>sd_card-24px</title>
    <desc>Created with Sketch.</desc>
    <defs></defs>
    <g id="Page-1" stroke="none" stroke-width="1" fill="none" fill-rule="evenodd" opacity="0.395606884">
        <g id="Import-from-Edge--no-SD-Card-detected" transform="translate(-208.000000, -182.000000)" fill="#FFFFFF" fill-rule="nonzero">
            <g id="sd_card-24px" transform="translate(208.000000, 182.000000)">
                <path d="M14,0 L6,0 L0,6 L0,18 C0,19.1 0.9,20 2,20 L14,20 C15.1,20 16,19.1 16,18 L16,2 C16,0.9 15.1,0 14,0 Z M14,18 L2,18 L2,6.83 L6.83,2 L14,2 L14,18 Z M5,5 L7,5 L7,9 L5,9 L5,5 Z M8,5 L10,5 L10,9 L8,9 L8,5 Z M11,5 L13,5 L13,9 L11,9 L11,5 Z" id="Shape"></path>
            </g>
        </g>
    </g>
</svg>