<?xml version="1.0" encoding="UTF-8"?>
<svg width="18px" height="18px" viewBox="0 0 18 18" version="1.1" xmlns="http://www.w3.org/2000/svg" xmlns:xlink="http://www.w3.org/1999/xlink">
    <!-- Generator: Sketch 49.3 (51167) - http://www.bohemiancoding.com/sketch -->
    <title>alarm-24px</title>
    <desc>Created with Sketch.</desc>
    <defs></defs>
    <g id="Symbols" stroke="none" stroke-width="1" fill="none" fill-rule="evenodd">
        <g id="Icon/time" transform="translate(-3.000000, -3.000000)">
            <g id="alarm-24px">
                <polygon id="Shape" points="0 0 24 0 24 24 0 24"></polygon>
                <path d="M12.5,7 L11,7 L11,13 L15.75,15.85 L16.5,14.62 L12.5,12.25 L12.5,7 Z M12,3 C7.03,3 3,7.03 3,12 C3,16.97 7.03,21 12,21 C16.97,21 21,16.97 21,12 C21,7.03 16.97,3 12,3 Z M12,19 C8.14,19 5,15.86 5,12 C5,8.14 8.14,5 12,5 C15.86,5 19,8.14 19,12 C19,15.86 15.86,19 12,19 Z" id="Shape" fill="#9B9B9B" fill-rule="nonzero"></path>
            </g>
        </g>
    </g>
</svg>