<?xml version="1.0" encoding="UTF-8"?>
<svg width="13px" height="13px" viewBox="0 0 13 13" version="1.1" xmlns="http://www.w3.org/2000/svg" xmlns:xlink="http://www.w3.org/1999/xlink">
    <!-- Generator: Sketch 49.3 (51167) - http://www.bohemiancoding.com/sketch -->
    <title>play_circle_outline-24px@1.5x</title>
    <desc>Created with Sketch.</desc>
    <defs></defs>
    <g id="Symbols" stroke="none" stroke-width="1" fill="none" fill-rule="evenodd">
        <g id="Icon/play" transform="translate(-6.000000, -6.000000)" fill="#9B9B9B" fill-rule="nonzero">
            <g id="play_circle_outline-24px" transform="translate(6.000000, 6.000000)">
                <path d="M5.2,9.425 L9.1,6.5 L5.2,3.575 L5.2,9.425 Z M6.5,0 C2.912,0 0,2.912 0,6.5 C0,10.088 2.912,13 6.5,13 C10.088,13 13,10.088 13,6.5 C13,2.912 10.088,0 6.5,0 Z M6.5,11.7 C3.6335,11.7 1.3,9.3665 1.3,6.5 C1.3,3.6335 3.6335,1.3 6.5,1.3 C9.3665,1.3 11.7,3.6335 11.7,6.5 C11.7,9.3665 9.3665,11.7 6.5,11.7 Z" id="Shape"></path>
            </g>
        </g>
    </g>
</svg>